<?xml version="1.0" encoding="UTF-8" standalone="no"?>
<!-- Created with Inkscape (http://www.inkscape.org/) -->

<svg
   xmlns:dc="http://purl.org/dc/elements/1.1/"
   xmlns:cc="http://creativecommons.org/ns#"
   xmlns:rdf="http://www.w3.org/1999/02/22-rdf-syntax-ns#"
   xmlns:svg="http://www.w3.org/2000/svg"
   xmlns="http://www.w3.org/2000/svg"
   xmlns:sodipodi="http://sodipodi.sourceforge.net/DTD/sodipodi-0.dtd"
   xmlns:inkscape="http://www.inkscape.org/namespaces/inkscape"
   width="1232"
   height="230"
   viewBox="0 0 325.96665 60.854168"
   version="1.1"
   id="svg8"
   inkscape:version="0.92.2pre0 (973e216, 2017-07-25)"
   sodipodi:docname="chainDB.svg">
  <defs
     id="defs2" />
  <sodipodi:namedview
     id="base"
     pagecolor="#ffffff"
     bordercolor="#666666"
     borderopacity="1.0"
     inkscape:pageopacity="0.0"
     inkscape:pageshadow="2"
     inkscape:zoom="0.5"
     inkscape:cx="550.84283"
     inkscape:cy="400"
     inkscape:document-units="px"
     inkscape:current-layer="layer1"
     showgrid="false"
     units="px"
     width="1232px"
     inkscape:window-width="1366"
     inkscape:window-height="740"
     inkscape:window-x="0"
     inkscape:window-y="0"
     inkscape:window-maximized="1" />
  <metadata
     id="metadata5">
    <rdf:RDF>
      <cc:Work
         rdf:about="">
        <dc:format>image/svg+xml</dc:format>
        <dc:type
           rdf:resource="http://purl.org/dc/dcmitype/StillImage" />
        <dc:title></dc:title>
      </cc:Work>
    </rdf:RDF>
  </metadata>
  <g
     inkscape:label="Layer 1"
     inkscape:groupmode="layer"
     id="layer1"
     transform="translate(0,-236.14583)">
    <g
       id="g44"
       inkscape:export-xdpi="96"
       inkscape:export-ydpi="96"
       transform="translate(46.517877,72.33325)">
      <g
         aria-label="chainDB"
         style="font-style:normal;font-variant:normal;font-weight:normal;font-stretch:normal;font-size:75.84971619px;line-height:1.25;font-family:'Lane - Narrow';-inkscape-font-specification:'Lane - Narrow';letter-spacing:0px;word-spacing:0px;fill:#000000;fill-opacity:1;stroke:none;stroke-width:1.89624286"
         id="text12">
        <path
           d="m 46.444202,209.59712 -2.047942,-1.21359 q -1.137746,4.55098 -4.626833,7.12987 -3.413237,2.50304 -8.04007,2.50304 -7.509122,0 -11.453307,-5.68873 -3.413237,-4.85438 -3.413237,-12.8186 0,-7.88837 3.413237,-12.8186 3.868335,-5.68873 11.453307,-5.68873 4.930232,0 8.343469,2.73059 2.65474,2.19964 3.640786,5.08193 l 2.047942,-1.36529 q -3.337387,-8.57102 -14.032197,-8.57102 -8.646868,0 -13.197851,6.21968 -4.095884,5.46118 -4.095884,14.41144 0,8.72272 4.020035,14.3356 4.550983,6.21967 13.046151,6.21967 6.447226,0 10.69481,-3.56493 2.958139,-2.65474 4.247584,-6.90233 z"
           style="stroke-width:1.89624286"
           id="path75" />
        <path
           d="m 55.738164,219.07834 h 2.427191 v -21.08622 q 0,-2.27549 0.07585,-3.94419 0.151699,-1.74454 0.303399,-2.88229 1.820393,-10.08801 12.970301,-10.08801 6.067977,0 8.722718,3.41324 2.275491,2.95814 2.275491,9.25366 v 25.33381 h 2.427191 v -26.0923 q 0,-14.10805 -13.50125,-14.10805 -9.557064,0 -13.2737,7.28157 v -21.54132 h -2.427191 z"
           style="stroke-width:1.89624286"
           id="path77" />
        <path
           d="m 125.78419,210.58317 v 8.49517 h 2.35134 v -39.366 h -2.35134 v 9.02611 q -3.86834,-9.86046 -14.86654,-9.86046 -8.72272,0 -13.273705,6.14383 -4.095885,5.46118 -4.095885,14.48729 0,8.95027 4.095885,14.4873 4.702685,6.06797 13.273705,6.06797 11.07405,0 14.86654,-9.48121 z M 95.975251,199.50911 q 0,-7.96422 3.489087,-12.8186 3.868332,-5.68873 11.453312,-5.68873 7.58497,0 11.4533,5.68873 3.41324,4.93023 3.41324,12.8186 0,7.96422 -3.41324,12.8186 -3.86833,5.68873 -11.4533,5.68873 -7.58498,0 -11.529162,-5.68873 -3.413237,-4.85438 -3.413237,-12.8186 z"
           style="stroke-width:1.89624286"
           id="path79" />
        <path
           d="m 138.92634,219.07834 h 2.35134 v -39.366 h -2.35134 z m -0.4551,-51.57781 q 0,3.64079 1.59285,3.64079 1.66869,0 1.66869,-3.64079 0,-3.56494 -1.66869,-3.56494 -1.59285,0 -1.59285,3.56494 z"
           style="stroke-width:1.89624286"
           id="path81" />
        <path
           d="m 152.03175,219.07834 h 2.4272 v -21.08622 q 0,-2.27549 0.0759,-3.94419 0.15169,-1.74454 0.30339,-2.88229 1.8204,-10.08801 12.97031,-10.08801 6.06797,0 8.72271,3.41324 2.27549,2.95814 2.27549,9.25366 v 25.33381 h 2.4272 v -26.0923 q 0,-14.10805 -13.50125,-14.10805 -9.55707,0 -13.2737,7.28157 v -6.44722 h -2.4272 z"
           style="stroke-width:1.89624286"
           id="path83" />
        <path
           d="m 211.61052,166.05939 c -7.20572,0 -13.19785,0.3034 -18.65903,0.68264 v 52.33631 c 5.46118,0.37925 11.45331,0.68265 18.65903,0.68265 15.01825,0 20.40358,-6.59893 20.40358,-26.8508 0,-20.25188 -5.38533,-26.8508 -20.40358,-26.8508 z m 0,47.86117 c -4.55098,0 -8.57101,-0.0759 -11.98425,-0.1517 v -41.7932 c 3.56493,-0.0758 7.35742,-0.15169 11.98425,-0.15169 10.01217,0 13.4254,5.23363 13.4254,21.08622 0,15.85259 -3.41323,21.01037 -13.4254,21.01037 z"
           style="font-style:normal;font-variant:normal;font-weight:normal;font-stretch:normal;font-family:'Exo 2';-inkscape-font-specification:'Exo 2, '"
           id="path85" />
        <path
           d="m 268.8818,192.07584 v -0.3034 c 6.29553,-0.6068 8.87442,-4.47513 8.87442,-11.98425 0,-10.77066 -4.62683,-13.65295 -17.44543,-13.65295 -7.73667,0 -11.75671,0.0759 -16.99034,0.60679 v 52.33631 c 5.91628,0.53095 10.39141,0.6068 19.34168,0.6068 11.98425,0 16.68694,-2.88229 16.68694,-13.65295 0,-8.34347 -2.65474,-13.2737 -10.46727,-13.95635 z m -8.87441,-20.25187 c 8.41932,0 11.30161,1.59284 11.30161,8.72271 0,7.05403 -2.65474,8.79857 -10.23972,8.87442 h -11.22575 v -17.59713 z m 1.59284,42.17244 c -4.55098,0 -8.64687,0 -11.7567,-0.0759 v -19.41753 h 11.3016 c 8.57102,0.1517 11.45331,2.27549 11.45331,10.39141 0,7.43327 -2.73059,9.10197 -10.99821,9.10197 z"
           style="font-style:normal;font-variant:normal;font-weight:normal;font-stretch:normal;font-family:'Exo 2';-inkscape-font-specification:'Exo 2, '"
           id="path87" />
      </g>
      <g
         id="g14"
         transform="matrix(0.16756927,0,0,0.16756927,-46.418326,174.27295)">
        <g
           id="g12">
          <g
             id="g10">
            <g
               id="g8">
              <path
                 id="path2"
                 data-old_color=" rgb(0, 0, 0)"
                 class="active-path"
                 data-original="#000000"
                 d="M 149.996,0 C 67.157,0 0.001,67.161 0.001,149.997 0.001,232.833 67.157,300 149.996,300 232.835,300 299.999,232.837 299.999,149.997 299.999,67.157 232.835,0 149.996,0 Z m 75.367,123.302 -36.686,36.686 c -3.979,3.979 -9.269,6.17 -14.895,6.17 -5.625,0 -10.916,-2.192 -14.895,-6.168 l -1.437,-1.437 -3.906,3.906 1.434,1.434 c 8.214,8.214 8.214,21.579 0,29.793 l -36.681,36.686 c -3.979,3.979 -9.269,6.17 -14.898,6.17 -5.628,0 -10.919,-2.192 -14.9,-6.173 L 74.634,216.5 C 66.42,208.291 66.42,194.927 74.631,186.71 l 36.689,-36.684 c 3.979,-3.979 9.269,-6.17 14.898,-6.17 5.629,0 10.916,2.192 14.898,6.17 l 1.432,1.432 3.906,-3.906 -1.432,-1.432 c -8.214,-8.211 -8.214,-21.576 -0.005,-29.79 l 36.689,-36.686 c 3.981,-3.981 9.272,-6.173 14.898,-6.173 5.626,0 10.916,2.192 14.898,6.17 l 13.868,13.873 c 8.207,8.209 8.207,21.576 -0.007,29.788 z"
                 inkscape:connector-curvature="0"
                 style="fill:#000000" />
              <path
                 id="path4"
                 data-old_color=" rgb(0, 0, 0)"
                 class="active-path"
                 data-original="#000000"
                 d="m 142.539,173.459 -7.093,7.093 -11.002,-10.999 7.093,-7.093 -1.432,-1.432 c -1.04,-1.037 -2.422,-1.611 -3.89,-1.611 -1.471,0 -2.853,0.573 -3.893,1.611 l -36.686,36.681 c -2.145,2.147 -2.145,5.638 0,7.783 l 13.87,13.873 c 2.083,2.083 5.708,2.08 7.786,0.003 l 36.681,-36.686 c 2.148,-2.147 2.148,-5.641 0,-7.789 z"
                 inkscape:connector-curvature="0"
                 style="fill:#000000" />
              <path
                 id="path6"
                 data-old_color=" rgb(0, 0, 0)"
                 class="active-path"
                 data-original="#000000"
                 d="m 200.493,90.643 c -1.04,-1.04 -2.425,-1.613 -3.896,-1.613 -1.471,0 -2.856,0.573 -3.896,1.616 l -36.686,36.684 c -2.142,2.147 -2.142,5.638 0.003,7.786 l 1.434,1.432 10.88,-10.883 11.002,11.002 -10.88,10.883 1.434,1.434 c 2.083,2.077 5.703,2.08 7.786,-0.003 L 214.358,112.3 c 2.145,-2.147 2.145,-5.638 0,-7.786 z"
                 inkscape:connector-curvature="0"
                 style="fill:#000000" />
            </g>
          </g>
        </g>
      </g>
    </g>
  </g>
</svg>
